ffmpeg started on 2016-11-27 at 18:05:57
Report written to "Output/NVENCh264/results/ffmpeg/old_town_cross_2160p50llhp1000k.log"
Command line:
Tools/ffmpeg/ffmpeg -benchmark -y -i Input/y4m/old_town_cross_2160p50.y4m -c:v h264_nvenc -preset llhp -b:v 1000k -an Output/NVENCh264/encoded/old_town_cross_2160p50llhp1000k.mkv
ffmpeg version N-82227-gdb23fde Copyright (c) 2000-2016 the FFmpeg developers
  built with gcc 5.4.0 (Ubuntu 5.4.0-6ubuntu1~16.04.2) 20160609
  configuration: --prefix=/home/jaroslav/ffmpeg_build --pkg-config-flags=--static --extra-cflags=-I/home/jaroslav/ffmpeg_build/include --extra-ldflags=-L/home/jaroslav/ffmpeg_build/lib --bindir=/home/jaroslav/bin --enable-gpl --enable-libass --enable-libfdk-aac --enable-libfreetype --enable-libmp3lame --enable-libopus --enable-libtheora --enable-libvorbis --enable-libvpx --enable-libx264 --enable-libx265 --enable-nvenc --enable-libmfx --enable-libxvid --enable-libgsm --enable-libopencore-amrnb --enable-version3 --enable-nonfree
  libavutil      55. 35.100 / 55. 35.100
  libavcodec     57. 66.101 / 57. 66.101
  libavformat    57. 57.100 / 57. 57.100
  libavdevice    57.  2.100 / 57.  2.100
  libavfilter     6. 66.100 /  6. 66.100
  libswscale      4.  3.100 /  4.  3.100
  libswresample   2.  4.100 /  2.  4.100
  libpostproc    54.  2.100 / 54.  2.100
Input #0, yuv4mpegpipe, from 'Input/y4m/old_town_cross_2160p50.y4m':
  Duration: 00:00:10.00, start: 0.000000, bitrate: 4976642 kb/s
    Stream #0:0: Video: rawvideo (I420 / 0x30323449), yuv420p(progressive), 3840x2160, SAR 1:1 DAR 16:9, 50 fps, 50 tbr, 50 tbn, 50 tbc
[h264_nvenc @ 0x2848120] The variable bitrate rate-control requires the 'qmin' and/or 'qmax' option set.
Output #0, matroska, to 'Output/NVENCh264/encoded/old_town_cross_2160p50llhp1000k.mkv':
  Metadata:
    encoder         : Lavf57.57.100
    Stream #0:0: Video: h264 (h264_nvenc) (Main) (H264 / 0x34363248), yuv420p, 3840x2160 [SAR 1:1 DAR 16:9], q=-1--1, 1000 kb/s, 50 fps, 1k tbn, 50 tbc
    Metadata:
      encoder         : Lavc57.66.101 h264_nvenc
    Side data:
      cpb: bitrate max/min/avg: 0/0/1000000 buffer size: 2000000 vbv_delay: -1
Stream mapping:
  Stream #0:0 -> #0:0 (rawvideo (native) -> h264 (h264_nvenc))
Press [q] to stop, [?] for help
frame=   19 fps=0.0 q=0.0 size=       0kB time=00:00:00.00 bitrate=N/A speed=   0x    frame=   30 fps= 29 q=0.0 size=       0kB time=00:00:00.00 bitrate=N/A speed=   0x    frame=   48 fps= 31 q=49.0 size=       1kB time=00:00:00.34 bitrate=  17.5kbits/s speed=0.222x    frame=   58 fps= 28 q=49.0 size=       1kB time=00:00:00.54 bitrate=  11.0kbits/s speed=0.265x    frame=   76 fps= 30 q=49.0 size=       1kB time=00:00:00.90 bitrate=   6.6kbits/s speed=0.353x    frame=   94 fps= 31 q=49.0 size=       1kB time=00:00:01.26 bitrate=   4.7kbits/s speed=0.411x    frame=  112 fps= 31 q=49.0 size=       1kB time=00:00:01.62 bitrate=   3.7kbits/s speed=0.453x    frame=  130 fps= 32 q=49.0 size=       1kB time=00:00:01.98 bitrate=   3.0kbits/s speed=0.484x    frame=  148 fps= 32 q=49.0 size=       1kB time=00:00:02.34 bitrate=   2.5kbits/s speed=0.508x    frame=  166 fps= 32 q=49.0 size=       1kB time=00:00:02.70 bitrate=   2.2kbits/s speed=0.527x    frame=  184 fps= 33 q=49.0 size=       1kB time=00:00:03.06 bitrate=   1.9kbits/s speed=0.543x    frame=  202 fps= 33 q=49.0 size=       1kB time=00:00:03.42 bitrate=   1.7kbits/s speed=0.556x    frame=  220 fps= 33 q=49.0 size=       1kB time=00:00:03.78 bitrate=   1.6kbits/s speed=0.567x    frame=  238 fps= 33 q=49.0 size=       1kB time=00:00:04.14 bitrate=   1.4kbits/s speed=0.577x    frame=  256 fps= 33 q=49.0 size=       1kB time=00:00:04.50 bitrate=   1.3kbits/s speed=0.585x    frame=  274 fps= 33 q=49.0 size=       1kB time=00:00:04.86 bitrate=   1.2kbits/s speed=0.592x    frame=  292 fps= 33 q=49.0 size=    1129kB time=00:00:05.22 bitrate=1771.7kbits/s speed=0.598x    frame=  310 fps= 34 q=49.0 size=    1129kB time=00:00:05.58 bitrate=1657.4kbits/s speed=0.604x    frame=  328 fps= 34 q=49.0 size=    1129kB time=00:00:05.94 bitrate=1557.0kbits/s speed=0.609x    frame=  346 fps= 34 q=49.0 size=    1129kB time=00:00:06.30 bitrate=1468.0kbits/s speed=0.614x    frame=  364 fps= 34 q=49.0 size=    1129kB time=00:00:06.66 bitrate=1388.7kbits/s speed=0.618x    frame=  382 fps= 34 q=49.0 size=    1129kB time=00:00:07.02 bitrate=1317.5kbits/s speed=0.621x    frame=  400 fps= 34 q=49.0 size=    1129kB time=00:00:07.38 bitrate=1253.2kbits/s speed=0.625x    frame=  418 fps= 34 q=49.0 size=    1129kB time=00:00:07.74 bitrate=1194.9kbits/s speed=0.628x    frame=  436 fps= 34 q=49.0 size=    1129kB time=00:00:08.10 bitrate=1141.8kbits/s speed=0.631x    frame=  454 fps= 34 q=49.0 size=    1129kB time=00:00:08.46 bitrate=1093.2kbits/s speed=0.634x    frame=  472 fps= 34 q=49.0 size=    1129kB time=00:00:08.82 bitrate=1048.6kbits/s speed=0.636x    frame=  490 fps= 34 q=49.0 size=    1129kB time=00:00:09.18 bitrate=1007.5kbits/s speed=0.638x    frame=  500 fps= 34 q=49.0 Lsize=    2550kB time=00:00:09.98 bitrate=2093.1kbits/s speed=0.678x    
video:2546kB audio:0kB subtitle:0kB other streams:0kB global headers:0kB muxing overhead: 0.166160%
bench: utime=1.156s
bench: maxrss=1420752kB
